# xmcd CD database file generated by freedbAccess_ocx
#
# Track frame offsets:
#       150
#       16060
#       30897
#       43191
#       57179
#       67070
#       86042
#       104940
#       124346
#       143868
#       161356
#       178027
#       196978
#       214476
#       223793
#       238254
#       251710
#       266867
#       283675
#       296187
#       307285
#       317881
#
# Disc length: 4423 seconds
#
# Revision: 0
# Processed by: cddbd v1.4PL0 Copyright (c) Steve Scherf et al.
# Submitted via: CDnGo 2.00
#
DISCID=6d114516
DTITLE=Statuto - I campioni siamo noi
DYEAR=2003
DGENRE=Ska
TTITLE0=I campioni saimo noi
TTITLE1=Qui non c'è il mare
TTITLE2=Piera
TTITLE3=Abbaiamo vinto al festival di Sanremo
TTITLE4=Ragazzo Ultras
TTITLE5=E' tornato Garibaldi
TTITLE6=Vattene Sceriffo
TTITLE7=Saluti dal mare
TTITLE8=Solo Tu
TTITLE9=Pugni chiusi
TTITLE10=Senza di me
TTITLE11=Se stiamo in tre
TTITLE12=L'attimo fuggente
TTITLE13=Un passo Avanti...
TTITLE14=Laura
TTITLE15=La mia Radio
TTITLE16=Grande
TTITLE17=Cos'è
TTITLE18=Sole Mare
TTITLE19=Ghetto
TTITLE20=Io Dio
TTITLE21=Abbiamo vinto al festival di Sanrema (2003)
EXTD=
EXTT0=
EXTT1=
EXTT2=
EXTT3=
EXTT4=
EXTT5=
EXTT6=
EXTT7=
EXTT8=
EXTT9=
EXTT10=
EXTT11=
EXTT12=
EXTT13=
EXTT14=
EXTT15=
EXTT16=
EXTT17=
EXTT18=
EXTT19=
EXTT20=
EXTT21=
PLAYORDER=
